# xmcd CD database file
#
# Track frame offsets:
#	150
#	13362
#	21268
#	51944
#	53061
#	72691
#	106524
#	122883
#	146323
#	152039
#	179831
#	209909
#	230157
#	245036
#
# Disc length: 3352 seconds
#
# Revision: 0
# Processed by: cddbd v1.4PL0 Copyright (c) Steve Scherf et al.
# Submitted via: CDex 1.50Beta7
#
DISCID=db0d160e
DTITLE=ABRAXAS - En - 99
DYEAR=1999
DGENRE=New Age
TTITLE0=14.06.1999
TTITLE1=My Awakening
TTITLE2=Jezebel
TTITLE3=Madness Came At Night
TTITLE4=Confession
TTITLE5=Anathema, My Obsessions
TTITLE6=The Media`s Loop
TTITLE7=Noel
TTITLE8=`37
TTITLE9=Locket
TTITLE10=Iris
TTITLE11=Purification
TTITLE12=Above
TTITLE13=D.I.R.T.
EXTD=YEAR: 1999
EXTT0=
EXTT1=
EXTT2=
EXTT3=
EXTT4=
EXTT5=
EXTT6=
EXTT7=
EXTT8=
EXTT9=
EXTT10=
EXTT11=
EXTT12=
EXTT13=
PLAYORDER=
